<?xml version="1.0" encoding="utf-8"?>
<!-- Generator: Adobe Illustrator 22.0.0, SVG Export Plug-In . SVG Version: 6.00 Build 0)  -->
<svg version="1.1" id="Capa_1" xmlns="http://www.w3.org/2000/svg" xmlns:xlink="http://www.w3.org/1999/xlink" x="0px" y="0px"
	 viewBox="0 0 308.7 391.6" style="enable-background:new 0 0 308.7 391.6;" xml:space="preserve">
<style type="text/css">
	.st0{fill:#FEFEFE;}
	.st1{fill:#DAA213;stroke:#DAA213;stroke-miterlimit:10;}
	.st2{fill:#DAA213;}
	.st3{fill:#E3E3E3;}
	.st4{fill:#DCDCDC;}
	.st5{fill:#E2E2E2;}
	.st6{fill:#FCFCFC;}
	.st7{fill:#F4F4F4;}
	.st8{fill:#E6E6E6;}
	.st9{fill:#EFEFEF;}
	.st10{fill:#E4E4E4;}
</style>
<path class="st0" d="M154.4,391.6c-50.5,0-101,0-151.6,0c-1.9,0-2.8,0-2.8-3.2C0.1,260,0.1,131.5,0,3.1C0,0.3,0.6,0,2.5,0
	c101.2,0.1,202.5,0.1,303.7,0c2.2,0,2.5,0.7,2.5,3.2c-0.1,128.4-0.1,256.9,0,385.2c0,2.8-0.6,3.1-2.5,3.1
	C255.6,391.6,205,391.6,154.4,391.6z"/>
<path class="st1" d="M155.1,318.1c6.7,2.6,13.5,7.5,19.9,7.1c6.2-0.5,10.5-8.4,15.9-12.7c12.1-9.5,25-17,40.1-20.1
	c6.9-1.3,13.5-1,19.8,2.2c12.6,6.1,15.5,19.8,6.5,31c-1.3,0.3-1.6-0.5-1.9-1.4c-0.2-1.6,0.6-3.1,1.1-4.7
	c3.8-11.7-2.4-21.2-14.8-22.3c-8.1-0.8-15.8,1-23.1,4.3c-11.5,5.5-21.3,13.2-30.4,21.8c-2.9,2.7-2.9,4.3,1.3,5.6
	c14.3,4,28.8,5.5,43.7,4.5c6.9-0.5,12.6-4.7,19.3-6.1c1,0.3,1.8,0.6,1.4,1.9c-8.3,7.4-18.3,9-28.8,9.5c-14.8,0.6-29.3-1.9-43.5-5.9
	c-1.9-0.5-3.8-2.1-5.9,0.2c-11.6,11.7-23.3,23.5-37.8,32.6c14.3,6.1,27.7,12.2,42.7,13.3c8.4,0.6,16.4-0.3,21-9
	c3.2-6.1,2.4-11.7-2.1-15.3c-4.8-3.9-10.5-3.5-15.8,1c-1.8,1.4-2.9,4.7-6.4,3.4c2.9-4.7,6.5-8.2,11.8-9.3c6.2-1.3,12.6,1.4,16.1,6.7
	c3.2,5,2.9,11.4-1.1,16.9c-5.1,7.1-12.3,9.8-20.7,9.6c-13.2-0.3-25.3-4.8-36.8-10.8c-7.2-3.7-13.2-4.7-20.9-0.5
	c-9.2,5.1-19.8,7.1-30.6,5.8c-3-0.3-5.7-1.3-8.3-2.9c-7.6-4.8-7.3-13.5,0.8-17.5c7-3.5,14.2-3.1,21.5-1.1c-0.3,2.7-2.7,2.2-4.5,2.6
	c-4.5,0-9.1-0.5-13.5,1.6c-2.2,1.1-4.5,2.4-4.6,5c-0.2,3.1,2.1,4.7,4.5,5.8c2.2,1.1,4.6,1.3,7,1.3c10.7,0.2,20.4-2.6,29-8.8
	c0.8-0.5,1.4-1.1,2.4-0.5c1.6,0.5,3-0.2,4.5-1c13.9-8.8,25.7-20.1,37.3-31.8c-7-3.1-13.7-5.9-20.2-9c-2.9-1.4-4.8,1.6-7.3,1.3
	c-0.3-0.3-0.5-0.6-0.3-1c0.2-0.3,0.2-0.5,0.3-0.5c0.6-1,3.7-1.4,0.5-3.1c-23.9-12.4-46.7-27.3-73.8-32.4c-11-2.1-21.7-1.6-31.7,4.2
	c-1.3,0.3-1.6-0.2-1.4-1.3c2.1-1.4,4.1-2.7,7.2-4.8c-11.5,0-22.1,0-32.7,0c-1.6,0-4,1.4-4.3-2.2c-0.3-3.4,1.3-4,4-4.3
	c2.4-0.3,4.6-1.1,7-1.6c5.9-1.4,9.2-5.1,9.7-11.4c0.2-3.2,0.5-6.4,0.5-9.6c0-33.2-0.6-66.7,0.3-99.9c0.3-14-8.1-20.4-17.2-27
	c-2.1-1.6-4-2.2-3.5-5.1c0.6-3.2,3-1.9,4.8-1.9c4.1-0.2,8.1,0,14,0c-11.5-7.7-15.1-17-12.7-28.8c2.2-11.2,8.4-19.6,18.2-25.4
	c0.5,0.6,0.5,1.1,0,1.8c-9.4,8.8-15.8,19-14.3,32.4c1.1,10.8,9.9,19,20.7,19.6c7.5,0.5,14.7-0.3,21.3-3.7c1.3-0.5,1.4,0,1.1,1.1
	c-6.4,2.2-1.3,4.5,0.2,6.4c22.3,27.8,44.6,55.4,67.1,83c4.3,5.3,8.6,10.6,12.7,15.7c2.1-1,1.1-2.6,1.1-3.7c0-22.5,0-45,0-67.5
	c0-2.2,0-4.5-0.3-6.6c-1.6-11.9-5.4-15.9-17.2-17.8c-2.5-0.5-5.3,0-4.9-4.2c0.5-4.2,3.5-2.4,5.4-2.4c28-1.9,56.1-2.2,84.3-2.4
	c-7-1.9-14-3.7-21-5.9c-21.8-6.7-41.4-18-61.7-28.1c-14.3-7.2-29.3-12.4-45.4-13.8c-3.3-1.4-7.6,1.4-10.7-1.9
	c18.8-2.1,36.2,2.9,53.2,10.3c20.4,8.8,39.7,20.4,60.7,27.6c16.7,5.8,33.6,11.1,51.6,11.2c5.9,0,11.5-1.4,17-2.4
	c1.3-0.5,2.5-1,2.5,1.3c-1.1,0.6-2.2,1.1-4.8,2.4c13.1,0,24.7,0.3,36.3-0.2c4.6-0.2,5.6,1.3,5.6,5.6c-0.2,13,0.2,26,0.2,39.2
	c0,1.9,1.1,4.7-2.7,4.5c-2.7,0-4.6-0.2-4.8-3.7c-0.2-2.4-1-4.7-1.6-7.1c-5.3-19.4-16.4-29.1-40.9-30.5c-4-0.2-3.3,2.2-3.3,4.5
	c0,13.5,0,26.8,0,40.3c0,26.3,0,52.5,0,78.9c0,1.9,0,4,0,5.9c0.5,15.9,2.4,18,17.8,20.6c2.5,0.5,6.2-0.5,6.4,4.2
	c0,0.8,2.5,1.6,4,2.2c8.3,3.4,15.5,8.2,21.2,15.1c1.1,1.4,3.2,2.6,2.4,5.5c-3.3-0.8-5.4-3.4-7.6-5.3c-11.8-10.4-25-16.7-41.3-15.1
	c-11.2,1.1-22.6-1.3-33.8,1.6c-1.6,0.3-3.2-0.2-4.8,0.2c-7.2,0-14.3,0.2-21.5,0c-2.9,0-5.9-0.2-6.4-4c-0.5-4,2.5-5,5.6-5.8
	c1.3-0.3,2.7-0.5,4.1-0.8c9.2-1.8,11.8-4.7,12.6-14c2.5-30.8,0.6-61.8,1.1-92.7c0.2-10.8,0.2-21.7,0-32.4c0-6.1-1.1-7.4-7-6.6
	c-17.7,2.1-28.5,8.5-34.1,26.8c-2.2,7.1-3.3,14.5-3.3,22c0.2,33.2,0.2,66.7,0,99.9c0,4.2,1.6,9.5-3.8,11.6
	c-5.4,2.1-8.1-2.6-11.2-6.1c-32.3-39.5-64.4-79.2-96.7-118.5c-0.6-0.8-1.1-1.8-2.2-2.1c-1.4,1.4-0.6,3.4-0.6,5c0,26.8,0,53.8,0,80.6
	c0,1.8,0.2,3.5,0.2,5.5c0.2,11.4,5.1,17.7,16.6,22.3c10.2,4.2,20.9,5.9,31.1,9.2c8.3,2.7,16.6,5.8,24.4,9.8
	c13.1,6.7,26.3,13.3,39.5,19.9C153.8,314.9,153.5,317.3,155.1,318.1z"/>
<path class="st2" d="M67.5,55.8c25-2.9,48.4,3.5,71.1,13.5c22.1,9.6,43.2,21.7,65.8,30c0.2,0,0.2,0.6,0.5,1.4
	c-2.5,0.5-4.6-0.8-6.9-1.6c-25.3-8.1-47.1-20.6-69.6-29.6c-18.3-7.4-37.1-13-57-12.8C70,57.1,68.1,58.5,67.5,55.8z"/>
<path class="st2" d="M26.1,326.4c24.1,17.3,59.1,19.4,84,11.2c1.8-0.5,3.3-1,5.1-1.4c1.3-0.6,2.4-1.1,2.4,1.1
	c-26.6,11.2-53.2,14.1-80,0.3c-4.9-2.6-9.6-5.6-13.4-9.8C24.3,326.6,24.6,325.8,26.1,326.4z"/>
<path class="st2" d="M257.5,90.8c6.5-13.3,5.6-23.3-3.2-31.2c-10.5-9.4-19-11.6-34.6-1.1c-2.2,1.4-4.6,2.9-6.9,4.3l0.2,0.2
	c0-0.6-0.2-1.3,0.2-1.8c5.3-8.4,21.3-13.8,32-10.8c11.5,3.2,20.1,13.8,19.9,25.4c0,6.1-1.8,11.7-6.5,16.1
	C257.7,92.1,257.4,91.8,257.5,90.8z"/>
<path class="st2" d="M187,81.8c-3.7,1-7.3,1.8-11.2,1c-1.8-0.3-3.3-1.3-3.7-3.4c-0.3-2.2,1-3.7,2.9-4.7c3.7-1.8,7.6-1.4,11.6-1.3
	c1-0.8,1.8-1.9,3.2-1.3c1.4-2.4-1.9-3.4-1.8-5.5c-0.6-1,0-1.4,0.8-1.9c3,0.3,3.7,3.5,6.1,4.5c0.8-0.2,1.6-1,2.5-0.5
	c1,3.1-0.5,6.9,3.8,8.5c0.2,1.3-0.3,1.8-1.6,1.3c-2.4-1-4.3,1-6.5,1.1c-1,0.6-1.4,0-2.1-0.6c-4-3.2-8.3-1.1-12.4-1
	c1.9,1.8,4.1,0.8,6.1,1.4C185.9,79.9,187.1,80.2,187,81.8z"/>
<path class="st2" d="M128,36.5c-2.9-0.6-3.8-1.9-5.3-1.3c-1.8,0.6-3.2-1.1-4.8-1c-4.1-0.3-8.4,0.2-12.6,0.2
	c-1.4-0.3-2.1-1.3-1.9-2.7c3.7-1.4,7.6-1.4,11.6-1.6c0.8-1,1.9-1.4,2.5-2.6c-0.3-0.6-0.8-1.3-1.1-1.8c-0.3-0.5-0.5-1-0.2-1.6
	c2.4-2.1,5.3,3.7,7.6-0.5c2.2,3.7,0.3,9.6,5.9,11.6C129.5,36.4,129.3,37.2,128,36.5z"/>
<path class="st2" d="M278.9,65.3c6.1,10.8,5.4,23.6-2.2,32.3c5.3-16.6,4.5-16.3,1.3-30C278.4,66.9,278.1,65.8,278.9,65.3z"/>
<path class="st2" d="M41.5,320.5c5.5,2.9,28.8,6.2,32.5,5.9c1.4,0,3.3-1.6,4.1,1.1c-13.4,2.6-26.4,2.4-38.2-5.8
	C39.9,320.7,40.2,319.9,41.5,320.5z"/>
<path class="st3" d="M75.8,14.5c1.4,0.3,3,0.5,3.7,2.1c1.3,2.1,0.5,3.1-1.8,3.4c-4.8-1.1-9.6-2.2-13.7-5c-2.1-1.3-4.9-2.7-1.6-5.8
	C67.6,8.6,72.1,10.7,75.8,14.5z"/>
<path class="st2" d="M76.4,19.2c2.1,0.3,1.9-1.4,2.2-2.6c4.3,3.2,7.7,3.6,12.5,4.6c3.2,0.5,6.5,1.1,9.6,2.7
	c-0.2,2.2,0.4-0.2-0.7-0.7c-4-0.6-8.1-1.4-12.1-2.1c-3-0.5-5.4,0.5-6.9,3.2c-1,0.5-1.9,0.3-2.9,0.5c-1.3,0-2.5,0.5-3.7,0
	c-0.6-0.5-1.3-1-0.6-1.9c0-1.6,2.7-0.2,2.5-2.2c-0.3-0.3-0.3-0.6-0.3-1C76.2,19.3,76.4,19.2,76.4,19.2z"/>
<path class="st2" d="M203.5,284.5c1.4,0.5,2.7,1,4.1,1.4c-9.9,4.3-19.8,8.8-29,14.6c-0.5-0.5-0.8-1-0.8-1.6c0.3-2.6,2.4-3.5,4.1-4.7
	C188.9,290,195.7,286.3,203.5,284.5z"/>
<path class="st4" d="M123.7,23.7c-2.1,1.1-0.5,3.4-1.6,4.8c-2.7-0.3-3-4-5.6-4.5c-2.4-1.9-3.7-4.8-4.3-7.5c-0.8-3.2,0.5-5.1,4.1-3.9
	c1.9,1.3,3,3.4,4.1,5.5c0.8,1.9,1.8,3.9,3.2,5.5V23.7z"/>
<path class="st5" d="M104.4,33.5c4.6-1.4,9.6-0.8,14.3-0.8c1.9,1.1,1.9,2.2-0.2,3.4c-1.9,1-4.1,0.5-5.9,2.1l0.2-0.2
	c-3.5,1.6-7.2,1.1-10.7,0C100.8,35.4,101.7,34,104.4,33.5z"/>
<path class="st2" d="M157.3,58c-2.9,1.9-6.1,2.6-9.4,2.4c-2.9,0.6-5.9,0.8-8.8,0c-2.9,0.2-3.7-1.9-3.7-4.2c0-2.4,1.9-3.7,3.8-4
	c3-0.5,6.2-0.3,9.4-0.3c1.3-0.8,2.4-1.1,3.7-0.2c0.8,1.9-0.6,2.2-1.8,2.7c-2.7,0.8-5.7-0.3-8.4,1.1c-1,3.2,1.6,2.1,2.9,2.2
	c3.7,0.2,7.2-1.8,10.8-1.3C156.5,56.6,157,57.1,157.3,58z"/>
<path class="st2" d="M211.2,80.7c6.9,1.4,13.8,2.2,24.1,1.6c-8.9,3.5-17.8,2.6-26.6-0.5C208.5,79.6,209.9,80.4,211.2,80.7z"/>
<path class="st2" d="M156.7,58c-0.5-0.5-1-0.8-1.4-1.3c-1.9-1.1-4.5-0.3-6.2-2.2c-0.3-0.5-0.3-1,0.2-1.4c1,0,1.9-0.2,2.4-1.3
	c-0.8-1.9,1.8-1.4,1.9-2.7c0.3-0.8,1-1.3,1.8-1.1c1.6,0.5,2.4,1.9,3.5,3.1c1.4,1.1,1.6,3.1,2.5,4.5c1.1,0.8,2.4,1.6,3.5,2.6
	c0,1.1-0.2,1.8-1.4,1.3C161.2,58.2,159.1,57.6,156.7,58z"/>
<path class="st2" d="M42.6,319.4c-0.5,0.5-2.1,2.1-2.7,2.4c-5.4-3.9-10.7-7.7-10.8-15.4c-0.6-2.1-0.8-4.3,0-6.4
	c-0.2-2.4,0.5-4.3,2.2-5.9c1.4-0.3,1.9,0.2,1.6,1.6c-0.5,1.4-1.1,3.1-1.6,4.5c-0.5,2.4-0.6,4.8,0.2,7.2
	C32.4,313.4,38.6,315.4,42.6,319.4z"/>
<path class="st2" d="M117.7,337.4c-0.8-0.3-1.6-0.8-2.4-1.1c8.1-3.9,14.5-7,20.1-9.8c1.4-0.6,1.6,0.2,1.4,1.3
	C130.4,330.8,124.7,335.4,117.7,337.4z"/>
<path class="st2" d="M76.4,19.2c0,0.5,0,1,0,1.4c-5.9-0.6-11.3-2.4-16.1-6.1c-1.3-1-2.4-2.2-1.8-4c0.5-1.6,1.6-2.9,3.5-1.9
	c0.5,0.2,0.5,0.5,0.5,0.6c-0.2,0.2-0.3,0.3-0.5,0.3c-2.7,2.9,1.8,2.4,3,3.5C68.6,16.1,72.7,16.6,76.4,19.2z"/>
<path class="st2" d="M189.8,72.2c-1.1,0.5-2.1,0.8-3.2,1.3c-5.6-3.4-11-6.9-16.6-10.3c-0.3-0.8-0.3-1.4,0.3-2.1
	C176.3,64.4,181.9,67.7,189.8,72.2z"/>
<path class="st2" d="M116.4,13.4c-2.5-1-4.1-0.3-3.2,2.6c0.8,2.7,3.3,4.2,4.5,6.9c0,0.5-3.1,4.1-3.1,4.6c-3-1.9-1.8-7.1-3.3-10
	c-1.1-1.9-1.3-4.3,0.5-5.9c2.1-2.1,4.1-1.1,6.1,0.6C118,13.2,117.5,13.9,116.4,13.4z"/>
<path class="st2" d="M189.2,65.1c-0.5,0.5-0.8,1-1.3,1.4c-1.9-1.8-2.9-4.3-3.5-6.7c-0.5-2.1-0.8-4.5,1.6-5.9c2.5-1.4,4,0,5.6,1.8
	c0.3,1-0.3,1.4-1.1,1.8C186.5,59.5,190.9,62.9,189.2,65.1z"/>
<path class="st2" d="M69.9,69c3.2,2.4,7.5-0.6,10.7,1.9c-6.7,0.3-15.4,1.7-22.1,2.8C61.3,71.3,66.5,69.1,69.9,69z"/>
<path class="st2" d="M150,41c-1.4-3.1-2.7-6.4,0.8-8.4c2.9-1.6,5.3,0.3,6.5,3.2c0.5,1,0,1.6-1,1.9c-2.2-0.8-4-0.8-4.5,2.2
	C151.6,40.9,151,41.3,150,41z"/>
<path class="st2" d="M100.8,23c0.8-0.3,1.8-0.6,2.5-1.1c3.3,1,6.9,2.1,9.7,4.2c0.5,0.6,0.3,1.3-0.2,1.8
	C108.7,26.4,104.8,24.8,100.8,23z"/>
<path class="st2" d="M102.2,37.5c3.7,0.2,7.2,0.3,10.8,0.6c-3.8,3.5-8,3.7-12.1,0.8C100.9,38,101.4,37.6,102.2,37.5z"/>
<path class="st2" d="M62.7,9.5c0-0.3,0-0.6,0-1c6.2-1.1,11.3,1.3,13.1,5.8C71.5,12.6,67.6,9.5,62.7,9.5z"/>
<path class="st2" d="M209.3,82.5c-1,0.2-0.2-1.7-0.9-0.6c-3.2-0.6-6.1-1.4-8.8-3.2c0.5-0.5,1.1-1,1.6-1.3
	C204.6,78.4,206,81.4,209.3,82.5z"/>
<path class="st2" d="M71.1,37.5c-1.9,1.9-4.5,2.6-6.4,0.8c-2.1-1.9-1.6-4.7,0.3-6.7c1,0.5,1.4,1.4,1.8,2.2c0.6,1.6,2.2,1.4,3.5,1.9
	C71,36,71.6,36.7,71.1,37.5z"/>
<path class="st2" d="M67.5,55.8c1.3,0.3,2.5,0.8,3.8,1.1c-4.5,0.8-8.9,1.6-13.2,2.2v0.2C60,54.8,64.3,56.4,67.5,55.8z"/>
<path class="st2" d="M162,55.5c-1.3-1.3-2.4-2.4-3.7-3.7c0.6-2.1-0.8-4,0-6.1c0.3-1.1,0.6-2.4,2.2-2.2C161.6,47.4,162,51.5,162,55.5
	z"/>
<path class="st2" d="M111,40c1-2.6,5.3-3.8,7.1-4.7c1.4-0.8,1.6-1.3,0.6-2.6c2.2-0.6,2.5,1.9,4,2.6C119.7,37.3,114.9,40.9,111,40z"
	/>
<path class="st2" d="M103.2,357.9c1.6-0.6,3.5,0.3,4.8-1.1c2.5,0.3,5.1,0.6,7.5,2.1c-0.3,1.1-1,1.8-1.9,2.1
	C109.9,361,105.7,362.4,103.2,357.9z"/>
<path class="st2" d="M139.3,42c3.2,0.8,6.1,2.4,8.4,4.7c0.5,0.8,0.3,1.4-0.3,1.9c-3.2-1.9-6.1-3.5-8.3-5
	C138.5,43.1,138.5,42.5,139.3,42z"/>
<path class="st2" d="M150,41c0.5-0.5,0.8-1,1.3-1.4c3.3,1.9,4.5,5,4.6,8.7c-0.3,0.3-0.8,0.8-1.1,1.1c-0.6,0.6-1.1,0.5-1.6-0.2
	C153.2,46.2,149.5,44.4,150,41z"/>
<path class="st2" d="M102.2,37.5c-0.5,0.5-1,1-1.4,1.3c-2.4-3.5-3.3-3.9,0.7-5.2c0.3,0.6,2.6-0.6,3-0.1
	C103.2,34.4,101.3,35.1,102.2,37.5z"/>
<path class="st2" d="M153.7,48.3c0.5,0-0.2,1.3,0.5,1.3c-0.8,0.8-1.6,1.6-2.4,2.4c-1.3,0-2.5,0-3.8-0.2c1.3-1.6-0.6-2.1-1.1-3.2
	c0.2-0.6,0.2-1.3,0.3-1.9C148.9,47.6,151.9,47.3,153.7,48.3z"/>
<path class="st2" d="M78.1,327.6c-1.1-1.3-2.9-0.8-4.1-1.1c3-0.6,6.1-1.3,9.1-2.1c0.6,0.6,1.9,0,2.4,1.1
	C83.2,326.9,80.7,327.2,78.1,327.6z"/>
<path class="st2" d="M85.5,325.5c-0.8-0.3-0.5-1.8-1.3-2.2c2.7-1,4.3-0.7,7-1.6c1.3-0.6,1.4,0,1.4,1.1C90.3,324,88,325.2,85.5,325.5
	z"/>
<path class="st2" d="M160.5,43.6c-0.3,1-0.8,1.8-1.1,2.7c-3.2-2.1-4-5.1-3.2-8.8c0.3-0.5,0.8-1,1.1-1.6
	C159.7,37.8,159.2,41,160.5,43.6z"/>
<path class="st2" d="M178.5,298.5c0.2,0.6,0.2,1.3,0.3,1.9c-1.6,1.1-3.2,2.1-4.9,3.2c-1-0.3-1.4-0.8-1.6-1.8
	C173.4,299,175.3,297.7,178.5,298.5z"/>
<path class="st2" d="M187,81.8c-1-0.5-1.8-0.8-2.7-1.3c1.8-3.2,4.3-3.7,7.5-2.1c0.5,0.5,1,0.8,1.4,1.3
	C191.4,81.3,189.2,81.7,187,81.8z"/>
<path class="st2" d="M33.1,295.6c-0.5-0.5-1-1.1-1.6-1.6c1.3-1.9,2.5-3.9,4.9-4.8c0.5,0.5,1,1,1.4,1.3
	C36.2,292.2,34.7,294,33.1,295.6z"/>
<path class="st2" d="M197.5,68.8c-0.6,0.8-1.3,1.6-1.9,2.4c-2.2-2.1-2.2-4.8-2.1-7.5c0.2-0.3,0.3-0.5,0.5-0.8
	C198.3,63,196.7,66.7,197.5,68.8z"/>
<path class="st2" d="M168.6,62.9c-0.2,0.6,1.7-0.4,1.5,0.2c-2.2-0.8-4.5-2.1-6.2-3.9c0.5-0.5,1-0.8,1.4-1.3
	C166.7,58.9,166.5,61.7,168.6,62.9z"/>
<path class="st2" d="M136.8,327.7c-0.5-0.5-1-0.8-1.4-1.3c2.4-1.8,4.5-3.9,7.5-4.7c0,0.5,0,1,0,1.4
	C141.4,325.6,138.9,326.3,136.8,327.7z"/>
<path class="st2" d="M79.4,28c-0.3,0.6-4,5-3.7,4.7c-1.1,0.5-1.6-0.3-1.8-1.3c0.5-2.6,1.4-4.7,4.3-5.3C79.3,26.4,80.1,26.7,79.4,28z
	"/>
<path class="st2" d="M168.2,307.5c-1.8,1.1-3.3,2.2-5.1,3.5c-1-0.2-1.4-0.8-1.6-1.8c0.6-2.6,2.5-3.5,5.1-3.5
	C167.4,306,167.8,306.5,168.2,307.5z"/>
<path class="st2" d="M74.5,22.9c0.5,0.5,1,1,1.4,1.4c-0.3,2.7-2.4,3.4-4.5,4c-1-0.2-1.4-0.8-1.6-1.6C71.3,25.1,71.9,22.9,74.5,22.9z
	"/>
<path class="st2" d="M161,312.3c-1.8,1.1-3.3,2.2-5.1,3.5c-1-0.2-1.4-0.8-1.6-1.8c0.6-2.6,2.5-3.5,5.1-3.5
	C160.2,310.9,160.7,311.3,161,312.3z"/>
<path class="st2" d="M15.9,315.8c1.8,1.4,3.7,2.6,3.8,5.8c-3.2-1.1-4.1-3.4-4.9-5.6C14.9,315.4,15.4,315.4,15.9,315.8z"/>
<path class="st2" d="M190.5,56.8c0.5-0.3,0.8-0.6,1.3-1.1c1.6,2.1,4.6,3.7,2.4,7.1l0.2-0.2C190.5,62.4,190.3,59.7,190.5,56.8z"/>
<path class="st2" d="M207.8,100.4c2.7,0.3,5.4,0.3,8.9,3.4c-4.1-0.8-6.7-1.4-9.4-1.9C207.7,101.6,207.7,100.9,207.8,100.4z"/>
<path class="st2" d="M226.5,104.8c-3.2,0.5-6.1,0-8.9-2.1c3,0.5,5.9,0.8,8.9,1.3c0.3,0.2,0.5,0.3,0.3,0.6
	C226.6,104.6,226.6,104.8,226.5,104.8z"/>
<path class="st2" d="M74.6,31.9c0.3,0.3,0.8,0.6,1.1,0.8C75.3,34,71,37.5,71,37.5c-0.5-0.5-0.8-0.8-1.3-1.3
	C70,33.3,71.3,31.4,74.6,31.9z"/>
<path class="st2" d="M58.2,72.5c-2.1,0.8-3.8,3.1-6.7,1.9C53.6,72.2,55.7,71.4,58.2,72.5z"/>
<path class="st2" d="M137.5,43.8c0,0.6,1.7-0.7,1.7-0.1c-2.4-1.6-4.3-2.9-5.9-4c0-1.1,0.2-1.9,1.6-1.3
	C136.6,39.3,136.7,41.7,137.5,43.8z"/>
<path class="st2" d="M132.9,40.3c-0.5,0.5,0.9-1,0.2-0.6c-2.2-1.4-4-2.4-5.3-3.2c0.5-0.5,1.1-0.8,1.6-1.3
	C131.5,35.9,131.4,38.8,132.9,40.3z"/>
<path class="st2" d="M123.7,23.4c-3.3,0-2.5-3.2-3.7-5c-0.5-1.3,0.2-1.4,1.1-1.3C122.1,19.2,122.9,21.3,123.7,23.4z"/>
<path class="st2" d="M69.9,26.6c0.3,0.3,0.8,0.6,1.1,1c1.1,2.9-1,3.5-2.9,4.3c-1-0.2-1.6-0.6-1.9-1.6C67,28.5,68.1,27.2,69.9,26.6z"
	/>
<path class="st2" d="M121.2,16.9c-0.3,0.5-0.8,0.8-1.1,1.3c-1.3-1.6-2.4-3.2-3.7-4.8c0.5-0.5,1-0.8,1.3-1.3
	C119.6,13.2,120.7,14.8,121.2,16.9z"/>
<path class="st2" d="M95.8,319.2c1.8-1.1,3.3-2.2,5.1-3.4c0.8,0.2,1.3,0.5,1.4,1.3c-1.4,1.6-3.2,2.6-5.1,3.4
	C96.8,320,96,320,95.8,319.2z"/>
<path class="st2" d="M154.3,314.4c0.5,0.5,1.1,1,1.6,1.4c-0.6,1.1-2.9,1.3-1.9,3.4c-1.8,0.2-1.8-1.9-3-2.4
	C151.1,314.6,152.1,313.6,154.3,314.4z"/>
<path class="st2" d="M74.8,97.7c0.2-1.9,0.6-3.7,2.2-5.8c1.3,3.2,0.2,5.1-1.1,7.2C75.3,99,75.1,98.2,74.8,97.7z"/>
<path class="st2" d="M26.1,326.4c-0.6,0.5-1.1,1-1.8,1.4c-1.6-1-3.3-1.9-3.5-4.7C23.7,322.9,24.6,325,26.1,326.4z"/>
<path class="st2" d="M172.3,302.3c0.5,0.5,1.1,1,1.6,1.4c-1.3,0.8-2.4,1.6-3.7,2.4c-1-0.2-1.4-0.8-1.6-1.6
	C169.1,302.5,170.1,301.4,172.3,302.3z"/>
<path class="st2" d="M246.6,101.9c-3.2,0.6-4.5,2.1-6.9,1C241.3,100.8,242.9,100.8,246.6,101.9z"/>
<path class="st2" d="M95.8,319.2c0.5,0.5,1,0.8,1.4,1.3c-1.6,0.8-3.2,1.6-4.8,2.4c-0.5-0.3-1-0.8-1.4-1.1
	C92.8,320.8,94.2,320,95.8,319.2z"/>
<path class="st2" d="M252.8,330.3c-0.5-0.5-1-1-1.4-1.3c0-2.6,1.1-3.7,3.7-3.7c0.5,0.5,1,1,1.3,1.4
	C255.6,328.2,254.5,329.6,252.8,330.3z"/>
<path class="st2" d="M56.2,61c-1.8,1.1-1.8,0.1-4.9-0.6c2.5-1.9,4.3-3.2,6.7-1.3C58.1,59.3,56.2,61,56.2,61z"/>
<path class="st2" d="M128.7,363.9c-0.5,0.5-1,0.8-1.4,1.3c-2.1,0.8-3.7,0.2-5.1-1.4c-0.2-0.5-0.2-1.1,0.2-1.6
	C125,360.8,126.7,362.7,128.7,363.9z"/>
<path class="st2" d="M139,60.5c2.9,0,5.9,0,8.8,0C144.9,61.6,141.9,61.9,139,60.5z"/>
<path class="st2" d="M257.5,90.8c0.3,0.3,0.6,0.6,1.1,1c-1,1.9-1.9,3.9-4.8,3.4C255,93.2,255.8,91.6,257.5,90.8z"/>
<path class="st2" d="M255,117c-0.8-0.5-1.6-0.8-2.5-1.3c1.9-1.4,4-1.6,6.4-1.9C258.3,116.4,256.6,116.5,255,117z"/>
<path class="st2" d="M213.1,62.7c0.6,2.6-1.1,3.7-3.3,5.1C209.7,65,210.2,63.2,213.1,62.7C213.3,62.9,213.1,62.7,213.1,62.7z"/>
<path class="st2" d="M278.9,65.3c-0.3,0.8-0.6,1.6-1,2.2c-0.3-1.6-2.5-3.1-0.8-4.7C277.8,62.4,278.9,64,278.9,65.3z"/>
<path class="st2" d="M31.6,68.6c0-0.6,0-1.1,0-1.8c1.1-1.6,2.4-2.4,4.6-1.6C35.5,67.7,33.4,68,31.6,68.6z"/>
<path class="st2" d="M112.9,28c0-0.6,0.2-1.3,0.2-1.8c1.4,0.5,3,0.8,4.5,1.3c-0.2,1.4-1.1,2.2-2.5,2.6
	C114.2,29.5,113.5,28.8,112.9,28z"/>
<path class="st2" d="M232.4,103.8c1.4-0.8,2.9-1.4,4.9-0.5c-1.4,2.2-3.3,1.6-5.1,1.4c-0.3-0.2-0.5-0.5-0.3-0.6
	C232.1,103.8,232.2,103.8,232.4,103.8z"/>
<path class="st2" d="M246.5,101.8c0.3-2.7,4.2-4.7,6-5.9C252.4,99.2,248.7,101.2,246.5,101.8z"/>
<path class="st2" d="M8.4,303c2.4,1,2.1,3.1,3.3,5.1C8.2,307.2,9.2,304.8,8.4,303z"/>
<path class="st2" d="M72.9,103.7c1.1,2.6-2.5,5.1-4.1,6.7C68.2,107.4,71.1,104.6,72.9,103.7z"/>
<path class="st2" d="M46,78.3c-1,1.1-2.1,2.1-4.3,2.2c0.6-2.6,2.2-3.2,4-3.7C46.3,77.2,46.4,77.6,46,78.3z"/>
<path class="st2" d="M31.5,307.3c-1.6-2.4-1.8-4.8-0.2-7.2C31.5,302.5,31.5,304.9,31.5,307.3z"/>
<path class="st2" d="M60.3,118.1c-0.3-0.3-0.8-0.6-1.1-1.1c1-1.4,2.4-1.9,4.5-2.4C63.3,116.8,61.9,117.6,60.3,118.1z"/>
<path class="st2" d="M168.6,304.8c0.5,0.5,1.1,1,1.6,1.4c-0.6,0.5-1.4,1-2.1,1.3c-0.5-0.5-1-1-1.4-1.4
	C166.4,304.3,167.4,304.3,168.6,304.8z"/>
<path class="st2" d="M161,312.3c-0.5-0.5-1-1-1.4-1.4c-0.2-1.8,0.8-1.8,2.1-1.3c0.5,0.5,1.1,1,1.6,1.4
	C162.4,311.3,161.6,311.8,161,312.3z"/>
<path class="st2" d="M114.2,360.2c0.5-0.3,1-0.8,1.4-1.1c1.3,0,2.5,0,3.5,1.3c-0.2,1-0.8,1.4-1.6,1.9
	C115.7,362.4,114.5,361.9,114.2,360.2z"/>
<path class="st2" d="M117.7,361.3c0.5-0.3,1-0.6,1.3-1.1c1.4,0,2.9,0.2,3.3,1.9l0.2-0.2C120.4,364.8,119.1,362.9,117.7,361.3z"/>
<path class="st2" d="M102.4,317c-0.5-0.5,0.2-1.9-0.3-2.4c1.1-1,1.4-1.9,2.4-0.7C105.9,315.5,103.5,316.3,102.4,317z"/>
<path class="st2" d="M79.4,28c-0.3-0.5-0.8-0.8-1.1-1.3c-1-1.6,0.2-2.4,1-3.5c0.8,0.3,1.8,0.6,2.5,1.1C81,25.4,80.2,26.7,79.4,28z"
	/>
<path class="st2" d="M29.2,299.9c0,2.1,0,4.3,0,6.4C28,304.3,28.1,302,29.2,299.9z"/>
<path class="st2" d="M17,314.7c-0.3,0-1.9,1.3-2.2,1.3c-1.1-1-0.8-3.2-0.8-5C15.9,311.5,16.3,313.1,17,314.7z"/>
<path class="st2" d="M232.4,103.8c0,0.3-1.8,2.5-1.8,2.8c-1.9,0-2.1-1.8-4.1-1.8c0-0.3,0-0.6,0-1
	C228.4,103.8,230.3,103.8,232.4,103.8z"/>
<path class="st2" d="M46,78.3c-0.2-0.5,1-2.1,0.8-2.6c1.1-0.6,1.3-0.2,2.7-1C49.3,77.6,47.4,77.6,46,78.3z"/>
<path class="st2" d="M73,99.6c0.5,0.5,2.6-0.9,3.1-0.4c-0.2,1-0.3,2.9-1.6,2.2C72.3,100.4,73,100.8,73,99.6z"/>
<path class="st2" d="M66.2,30.3c0.5,0.3,0.8,0.8,1.3,1.1c0.6,1.4-0.2,2.1-1.4,2.4c-0.3-0.8-0.6-1.6-1-2.4
	C65.4,31.1,65.9,30.6,66.2,30.3z"/>
<path class="st0" d="M161.5,309.6c-0.6,0.5-1.3,1-2.1,1.3c-1.8,1.1-3.5,2.2-5.1,3.5c-1.4,0.5-2.7,1.1-3.5,2.4
	c-9.1-3.1-17-8.4-25.5-12.7c-19.6-10-39.4-19.3-61.7-21c-0.8,0-2.1-0.3-2.1-0.6c-0.8-5.8-5.9-4.7-9.4-5.6
	c-9.2-2.6-12.6-6.3-13.5-15.9c-1.3-12.4-0.5-24.9-0.5-37.3c-0.2-21.5,0-42.9,0-64.4c2.4-0.5,2.9,1.6,3.7,2.6
	c33.3,40.8,66.4,81.6,99.7,122.2c0.8,1,1.6,1.8,2.2,2.7c1.6,2.6,4.3,2.1,6.5,1.8c2.9-0.5,1.8-3.2,1.8-5c0-36.3-0.2-72.6,0.2-109.1
	c0.2-10.9,3-21.4,8.9-30.7c8.4-13.2,21.8-15.6,35.8-16.5c1.8-0.2,2.7,0.5,2.7,2.2c0,1.4,0,2.7,0,4.2c0,39.4,0,78.7,0,118.1
	c0,1.1,0,2.4,0,3.5c-0.3,17.5-2.1,19.4-18.8,22.2c-2.5,0.5-5.3,0-4.6,4.2c0.5,4.3,3.7,2.2,5.4,2.2c7.3,0.3,14.7,0.2,22.1,0.2
	c-7.3,3.9-14.7,7.9-22,11.7c-1.3,0.6-2.4,1.3-3.2,2.4c-2.4,0.8-4.5,2.1-6.2,3.9c-1.1,0.8-2.4,1.6-3.5,2.4c-0.6,0.5-0.2-0.2-1,0.2
	C166.1,306,163.2,308.4,161.5,309.6z"/>
<path class="st0" d="M255,325.2c-1.3,1.3-2.4,2.4-3.7,3.7c-15.8,10.1-33.1,8.2-50.3,5.5c-6.9-1.1-13.5-2.7-21-5.6
	c16.7-15.3,32.2-30.8,55.8-32.8c3.7-0.3,7.2,0.2,10.5,1.4C258.7,302.2,261.8,312.5,255,325.2z"/>
<path class="st6" d="M117.7,361.3c1.6,0.6,3,1.8,4.8,0.8c0.5,2.7,3.2,2.1,4.8,3.1c-11.3,8.4-23.7,12-37.6,8.4
	c-3.2-0.8-5.9-2.9-6.1-6.7c0-4,2.9-5.9,6.1-7.4c4.3-1.9,8.9-1.3,13.5-1.4c3.7,0.8,7.3,1.4,10.8,2.2
	C115.3,360.5,116.5,361,117.7,361.3z"/>
<path class="st7" d="M192.9,77.3c-2.5,0.6-6.1,2.6-8.6,3.2c-1.9,0-4,0.2-5.9,0.2c-1.6,0-3.5,0.2-3.7-1.9c-0.2-1.6,1.6-2.4,2.9-2.6
	c4.9-0.3,10-1.8,14.7,1.3c0,0,0,0.3-0.2,0.5C192.1,78.3,193,77.3,192.9,77.3z"/>
<path class="st8" d="M190.5,56.8c1.3,1.9,0.7,5.9,2,7.8c0.5,2.9,2.8,3.8,3.3,6.7c-4-0.2-3.8-4.5-6.4-6.1c-0.8-2.2-1.9-4.3-2.2-6.6
	C186.5,55.3,188.2,55.6,190.5,56.8z"/>
<path class="st4" d="M66,33.8c0.5-0.8,1-1.6,1.4-2.4c1.4-1,1-0.2,1.7-2c1.6-1.1,5.2-4.1,6.8-5.1c1.1-0.3,2.1-0.8,3.2-1.1
	c-0.3,1.1-0.6,2.4-1,3.5c-1.3,1.8-2.4,3.4-3.7,5.1c-1.6,1.4-3.3,2.9-4.9,4.5C67.6,37,65.2,37.6,66,33.8z"/>
<path class="st9" d="M150,54.2c2.1,0.6,4,1.1,6.1,1.8c0.2,0,0.3,0.3,0.2,0.5c0,0.2-0.2,0.3-0.3,0.5c-16.8,5.6-2.6,3.4-15,1.9
	c-1.3-0.2-2.5-0.5-2.9-1.6c-0.6-1.9,1.1-2.2,2.2-2.9C143.6,53.5,146.8,53.5,150,54.2z"/>
<path class="st2" d="M150,54.2c-3.2,0-6.4,0-9.6,0c3-2.1,6.4-0.6,9.4-1C149.8,53.4,150,53.7,150,54.2z"/>
<path class="st10" d="M156.2,37.5c1.1,2.9,2.1,5.9,3.2,8.8c-0.6,1.8,1.6,4.2-1,5.6c-0.8-1.1-1.6-2.4-2.5-3.5
	c-1.6-2.9-4.9-3.9-6.5-6.8c0.5-1.6,0.7-5.9,3.1-6.5C154.5,34.3,155.1,36.4,156.2,37.5z"/>
</svg>
