<?xml version="1.0" encoding="utf-8"?>
<!-- Generator: Adobe Illustrator 22.0.0, SVG Export Plug-In . SVG Version: 6.00 Build 0)  -->
<svg version="1.1" id="Capa_1" xmlns="http://www.w3.org/2000/svg" xmlns:xlink="http://www.w3.org/1999/xlink" x="0px" y="0px"
	 viewBox="0 0 536 357" style="enable-background:new 0 0 536 357;" xml:space="preserve">
<style type="text/css">
	.st0{fill:#DAA314;stroke:#DAA314;stroke-miterlimit:10;}
	.st1{fill:#DAA313;}
</style>
<g>
	<path class="st0" d="M253.4,156.7v58.2H246c-3.1-12.3-7-24.3-10.8-29.7c-3.8-5.4-7-9.1-13.7-12.3c-3.7-1.7-9.8-4.9-19.1-4.9h-14.8
		v151.9c0,10.1,1.8,15.4,2.9,17.9c1.1,2.5,3.8,4.4,7.1,6.3c3.3,1.9,6.1,2.9,11.8,2.9l7.6,0.3l-1.1,6.3H112l-0.3-6.9h6.6
		c6.8,0.2,9.2-0.6,12.8-2.6c2.5-1.4,3.5-0.9,5-4.2c1.1-2.3,4.1-10.1,4.1-20V168.1h-14.4c-13.4,0-20.9,4.2-27,9.9
		c-8.5,7.8-14.6,22.5-16.8,37l-7.1-0.3v-57.9h178.5V156.7z"/>
</g>
<path class="st0" d="M194.6,70.6v20.6c0,2,0,3.7,0,5c0,0.5,0.2,0.8,0.4,0.9l2.1,0.9v1.1c-1.5-0.1-2.7-0.1-3.6-0.1
	c-0.9,0-2.1,0-3.7,0.1l-0.1-1.1l2.2-0.9c0.3-0.1,0.5-0.4,0.5-0.8c0-1.4,0-3.1,0-5.1V70.5c0-1.7,0-3.1,0-4.2c0-0.4-0.2-0.7-0.4-0.9
	l-2.2-1v-1.1c1.5,0.1,2.7,0.1,3.6,0.1c0.5,0,1.1,0,1.6-0.1l14.9,26.8V70.4c0-1.7,0-3.1,0-4.3c0-0.4-0.2-0.7-0.5-0.8l-2.1-0.9v-1.2
	c1.5,0.1,2.7,0.1,3.7,0.1c0.9,0,2.2,0,3.6-0.1l0.1,1.1l-2.2,1c-0.3,0.1-0.4,0.4-0.4,0.9c0,1.1,0,2.5,0,4.2v28.5l-1.5,0.2L194.6,70.6
	z"/>
<path class="st0" d="M229.2,91.2c0,1,0,1.9,0,2.8c0,0.8,0,1.6,0,2.3c0,0.4,0.3,0.7,0.8,0.9l2.5,0.9v1.1c-1.9-0.1-3.7-0.1-5.4-0.1
	c-1.8,0-3.6,0-5.4,0.1l-0.1-1.1l2.7-0.9c0.4-0.1,0.6-0.4,0.6-0.8c0-0.7,0-1.4,0-2.3c0-0.8,0-1.8,0-2.8V70.6c0-0.9,0-1.7,0-2.3
	c0-0.7,0-1.3,0-1.9c0-0.4-0.2-0.7-0.5-0.9l-2.7-1v-1.1c1.9,0.1,3.7,0.1,5.4,0.1c1.8,0,3.6,0,5.4-0.1l0.1,1.1l-2.7,0.9
	c-0.4,0.1-0.5,0.4-0.6,0.8c0,0.6,0,1.2,0,2c0,0.7,0,1.5,0,2.3v20.7H229.2z"/>
<path class="st0" d="M246.6,70.2V91c0,1,0,1.9,0,2.8c0,0.8,0,1.6,0,2.3c0,0.4,0.2,0.7,0.6,0.9l2.4,0.9l0.1,1.1
	c-1.7-0.1-3.5-0.1-5.2-0.1c-1.8,0-3.6,0-5.4,0.1l-0.1-1.1l2.7-0.9c0.4-0.1,0.6-0.4,0.6-0.8c0-0.7,0-1.4,0-2.3c0-0.8,0-1.8,0-2.8
	V70.4c0-0.9,0-1.7,0-2.3c0-0.7,0-1.3,0-1.9c0-0.4-0.2-0.7-0.5-0.9l-2.7-1v-1.1c1.9,0.1,3.7,0.1,5.4,0.1s3.5,0,5.2-0.1l0.1,1.1
	l-2.5,0.9c-0.4,0.1-0.5,0.4-0.6,0.8c0,0.6,0,1.3,0,2C246.6,68.6,246.6,69.3,246.6,70.2z M247.2,80.7l8.8-11.5
	c0.7-0.9,1.2-1.7,1.7-2.3c0.4-0.6,0.6-1.1,0.6-1.5c0-0.3-0.2-0.6-0.6-0.7l-1.8-0.6v-1.2c1.4,0.1,3.1,0.1,4.9,0.1
	c1.7,0,3.3,0,4.8-0.1l0.1,1.1l-2.2,0.8c-0.7,0.3-1.3,0.6-1.7,1.2s-1,1.1-1.6,1.9l-8.8,11.2l10,15.3c0.4,0.6,0.8,1.2,1.3,1.6
	c0.4,0.4,0.9,0.7,1.6,0.9l2,0.7v1.1c-1.2-0.1-2.8-0.1-4.7-0.1c-0.5,0-1,0-1.5,0s-1,0-1.5,0c-0.5-1.2-1.9-3.5-4.1-6.9L247.2,80.7z"/>
<path class="st0" d="M288.5,80.5c0,5.9-0.9,10.6-2.6,14.2s-4.2,5.4-7.3,5.4c-3,0-5.3-1.7-6.9-5s-2.4-7.8-2.4-13.4
	c0-5.9,0.9-10.5,2.6-14c1.7-3.4,4.2-5.1,7.3-5.1c3,0,5.3,1.6,6.9,4.8C287.7,70.6,288.5,74.9,288.5,80.5z M273,81.3
	c0,5.5,0.2,9.5,0.9,12.3c0.8,3.1,2.9,4.4,5.1,4.4s3.9-1.3,4.9-4c1.1-2.7,0.7-6.9,0.7-12.7c0-5.4,0.3-9.5-0.8-12.4
	c-1.1-2.9-2.9-4.3-5.2-4.3c-2.3,0-4.9,1.1-5,4C273.7,71.4,273,75.9,273,81.3z"/>
<path class="st0" d="M302.8,70.4v20.8c0,1.9,0,3.8,0,5.6h9.4l2.5-6.8l0.9-0.2l-0.4,9.1l-0.1,0.2c-3.3-0.1-6.4-0.1-9.3-0.1h-4.9
	c-1.6,0-3.2,0-4.8,0.1L296,98l2.4-0.9c0.3-0.1,0.5-0.4,0.5-0.8c0-0.7,0-1.4,0-2.3c0-0.8,0-1.8,0-2.8V70.5c0-0.9,0-1.7,0-2.3
	c0-0.7,0-1.3,0-1.9c0-0.4-0.2-0.7-0.5-0.9l-2.4-1v-1.1c1.7,0.1,3.3,0.1,4.8,0.1s3.1,0,4.8-0.1l0.1,1.1l-2.4,0.9
	c-0.3,0.1-0.5,0.4-0.5,0.8c0,0.6,0,1.5,0,2.6C302.8,69.9,302.8,70.5,302.8,70.4z"/>
<path class="st0" d="M333.7,62.8l8.5,31.2c0.3,1.2,0.6,2,0.9,2.4s0.6,0.7,1.1,0.9L346,98v1.1c-1.7-0.1-3.2-0.1-4.6-0.1
	c-1.5,0-3.2,0-5.1,0.1l-0.1-1.1l1.8-0.7c0.3-0.1,0.4-0.3,0.5-0.4s0.2-0.4,0.2-0.7c0-0.3-0.1-0.8-0.2-1.3s-0.3-1.3-0.6-2.2l-1.8-6.8
	h-9.2l-2,6.8c-0.3,1-0.5,1.7-0.6,2.3c-0.2,0.6-0.2,1-0.2,1.3s0.1,0.5,0.2,0.7c0.1,0.1,0.3,0.3,0.5,0.4l1.8,0.7v1.1
	c-1.8-0.1-3.3-0.1-4.4-0.1s-2.4,0-3.8,0.1l-0.1-1.1l1.9-0.8c0.5-0.2,0.8-0.5,1.1-0.9c0.2-0.4,0.5-1.1,0.8-2l9.8-31.1L333.7,62.8z
	 M327.6,83.6h7.9l-3.7-14.1L327.6,83.6z"/>
<path class="st0" d="M362.9,80.6l4.4-11.2c0.3-0.8,0.6-1.5,0.8-2.1c0.2-0.6,0.3-1.1,0.3-1.4c0-0.5-0.3-0.9-0.8-1.1l-1.7-0.6V63
	c1.4,0.1,2.8,0.1,4.2,0.1c1.4,0,2.7,0,4-0.1l0.1,1.1l-1.9,0.8c-0.5,0.2-0.8,0.5-1.1,0.9c-0.2,0.4-0.5,0.9-0.8,1.5l-6.6,15.8v7.8
	c0,1,0,1.9,0,2.8c0,0.8,0,1.6,0,2.3c0,0.4,0.2,0.7,0.7,0.9l2.4,1V99c-1.8-0.1-3.4-0.1-4.9-0.1s-3.2,0-4.9,0.1l-0.1-1.1l2.5-1
	c0.3-0.1,0.5-0.4,0.5-0.8c0-0.7,0-1.4,0-2.3c0-0.8,0-1.8,0-2.8v-7.2l-6.7-15.6c-0.5-1-0.9-1.8-1.2-2.2c-0.3-0.5-0.7-0.8-1.2-1
	l-1.7-0.7v-1.1c1.2,0.1,2.7,0.1,4.7,0.1c1.7,0,3.5,0,5.3-0.1l0.1,1.1l-1.8,0.7c-0.3,0.1-0.5,0.2-0.6,0.4c-0.1,0.2-0.2,0.4-0.2,0.6
	c0,0.4,0.1,0.8,0.3,1.3c0.2,0.5,0.4,1.1,0.7,1.8L362.9,80.6z"/>
<path class="st0" d="M283.4,142.9c-1.8,0-3.8,0-6,0.1l-0.1-1.1l3.2-1.1c0.4-0.1,0.6-0.4,0.6-0.8c0-1.3,0-2.9,0-5v-25.5h-7.8l-2,6.8
	l-0.9,0.2l-0.6-9.1l0.2-0.2c3.6,0.1,7,0.1,10.3,0.1h5.9c3.3,0,6.7,0,10.4-0.1l0.1,0.2l-1.4,9l-0.9,0.2l-1.4-7h-7.7V135
	c0,2,0,3.7,0,5c0,0.4,0.2,0.7,0.6,0.8l3.2,1.1v1.1C287.1,142.9,285.1,142.9,283.4,142.9z"/>
<path class="st0" d="M307.2,135.1c0,1,0,1.9,0,2.8c0,0.8,0,1.6,0,2.3c0,0.4,0.2,0.7,0.7,0.9l2.2,0.9v1.1c-1.6-0.1-3.2-0.1-4.7-0.1
	s-3.1,0-4.7,0.1l-0.1-1.1l2.3-0.9c0.3-0.1,0.5-0.4,0.5-0.8c0-0.7,0-1.4,0-2.3c0-0.8,0-1.8,0-2.8v-20.7c0-0.9,0-1.7,0-2.3
	c0-0.7,0-1.3,0-1.9c0-0.4-0.2-0.7-0.5-0.9l-2.4-1v-1.1c1.6,0.1,3.2,0.1,4.7,0.1s3.1,0,4.7-0.1l0.1,1.1l-2.4,0.9
	c-0.3,0.1-0.5,0.4-0.5,0.8c0,0.6,0,1.2,0,2c0,0.7,0,1.5,0,2.3L307.2,135.1L307.2,135.1z"/>
<path class="st0" d="M326.5,135.1c0,1,0,1.9,0,2.8c0,0.8,0,1.5,0,2.2c0,0.4,0.2,0.7,0.6,0.8l3,1.1v1.1c-2.1-0.1-4.1-0.1-5.8-0.1
	c-1.8,0-3.6,0-5.4,0.1l-0.1-1.1l2.7-0.9c0.4-0.1,0.6-0.4,0.6-0.8c0-0.7,0-1.4,0-2.3c0-0.8,0-1.8,0-2.8v-20.7c0-0.9,0-1.7,0-2.3
	c0-0.7,0-1.3,0-1.9c0-0.4-0.2-0.7-0.5-0.9l-2.7-1v-1.1c1.9,0.1,3.7,0.1,5.5,0.1c1.2,0,2.4,0,3.5-0.1s2.2-0.1,3.1-0.1
	c3.5,0,6.1,0.8,7.9,2.4s2.7,3.9,2.7,7c0,3.7-1,6.5-3.1,8.5s-4.9,3-8.7,3c-1,0-2.1-0.1-3.3-0.2L326.5,135.1L326.5,135.1z
	 M326.5,125.6c1,0.2,2,0.3,3,0.3c2.3,0,4.1-0.7,5.3-2.1s1.8-3.6,1.8-6.4s-0.6-4.8-1.7-6.2c-1.2-1.4-3-2-5.5-2c-1,0-2,0.1-3,0.2v16.2
	H326.5z"/>
<path class="st0" d="M359.3,107.3l9.7,31.2c0.4,1.2,0.7,2,1,2.4s0.7,0.7,1.3,0.9l2.1,0.7v1.1c-1.9-0.1-3.7-0.1-5.3-0.1
	c-1.7,0-3.6,0-5.9,0.1l-0.1-1.1l2.1-0.7c0.3-0.1,0.5-0.3,0.6-0.4s0.2-0.4,0.2-0.7c0-0.3-0.1-0.8-0.2-1.3c-0.2-0.6-0.4-1.3-0.6-2.2
	l-2.1-6.8h-10.6l-2.3,6.8c-0.3,1-0.5,1.7-0.7,2.3c-0.2,0.6-0.3,1-0.3,1.3s0.1,0.5,0.2,0.7c0.1,0.1,0.3,0.3,0.6,0.4l2,0.7v1.1
	c-2.1-0.1-3.8-0.1-5.1-0.1c-1.3,0-2.8,0-4.4,0.1l-0.1-1.1l2.2-0.8c0.6-0.2,1-0.5,1.2-0.9c0.3-0.4,0.6-1.1,0.9-2l11.2-31.1
	L359.3,107.3z M352.3,128.1h9L357,114L352.3,128.1z"/>
<path class="st0" d="M382.3,114.8v20.6c0,2,0,3.7,0,5c0,0.5,0.2,0.8,0.4,0.9l2.1,0.9v1.1c-1.5-0.1-2.7-0.1-3.6-0.1s-2.1,0-3.7,0.1
	l-0.1-1.1l2.2-0.9c0.3-0.1,0.5-0.4,0.5-0.8c0-1.4,0-3.1,0-5.1v-20.7c0-1.7,0-3.1,0-4.2c0-0.4-0.2-0.7-0.4-0.9l-2.2-1v-1.1
	c1.5,0.1,2.7,0.1,3.6,0.1c0.5,0,1.1,0,1.6-0.1l14.9,26.8v-19.7c0-1.7,0-3.1,0-4.3c0-0.4-0.2-0.7-0.5-0.8l-2.1-0.9v-1.2
	c1.5,0.1,2.7,0.1,3.7,0.1c0.9,0,2.2,0,3.6-0.1l0.1,1.1l-2.2,1c-0.3,0.1-0.4,0.4-0.4,0.9c0,1.1,0,2.5,0,4.2v28.5l-1.5,0.2
	L382.3,114.8z"/>
<path class="st0" d="M414.3,114v20.8c0,1.9,0,3.8,0,5.6h8.9l2.3-6.8l0.8-0.2l-0.4,9.1l-0.1,0.2c-3.2-0.1-6.1-0.1-8.8-0.1h-4.6
	c-1.5,0-3,0-4.5,0.1l-0.1-1.1l2.3-0.9c0.3-0.1,0.5-0.4,0.5-0.8c0-0.7,0-1.4,0-2.3c0-0.8,0-1.8,0-2.8v-20.7c0-0.9,0-1.7,0-2.3
	c0-0.7,0-1.3,0-1.9c0-0.4-0.2-0.7-0.4-0.9l-2.3-1v-1.1c1.6,0.1,3.1,0.1,4.5,0.1c1.5,0,3,0,4.5-0.1l0.1,1.1l-2.3,0.9
	c-0.3,0.1-0.5,0.4-0.5,0.8c0,0.6,0,1.5,0,2.6C414.3,113.5,414.3,114,414.3,114z"/>
<path class="st0" d="M432.9,107.2c1.3,0.1,2.6,0.1,3.8,0.1c1.2,0,2.5,0,3.8-0.1l0.1,1.1l-1.9,0.9c-0.2,0.1-0.4,0.4-0.4,0.8
	c0,0.6,0,1.2,0,2c0,0.7,0,1.5,0,2.3v14c0,4.9,0.5,8.2,1.4,10.1s2.4,2.8,4.5,2.8s3.6-1,4.6-2.9c0.9-1.9,1.4-5.2,1.4-9.7v-14.3
	c0-0.8,0-1.6,0-2.3c0-0.7,0-1.4,0-2c0-0.4-0.1-0.7-0.4-0.8l-1.8-0.9v-1.2c1.3,0.1,2.4,0.1,3.3,0.1s2,0,3.2-0.1l0.1,1.1l-1.9,1
	c-0.2,0.1-0.4,0.4-0.4,0.9c0,0.6,0,1.2,0,1.9c0,0.7,0,1.5,0,2.3v13.1c0,5.6-0.7,9.7-2,12.4c-1.4,2.7-3.5,4-6.4,4s-5-1.2-6.4-3.6
	s-2.1-6.1-2.1-11.2v-14.7c0-0.9,0-1.7,0-2.3c0-0.7,0-1.3,0-1.9c0-0.4-0.1-0.7-0.4-0.9l-1.9-1L432.9,107.2z"/>
<path class="st0" d="M466.8,134.8c0,1,0,1.9,0,2.8c0,0.8,0,1.6,0,2.3c0,0.4,0.2,0.7,0.6,0.9l2,0.9v1.1c-1.6-0.1-3.1-0.1-4.5-0.1
	c-1.5,0-3,0-4.5,0.1l-0.1-1.1l2.2-0.9c0.3-0.1,0.5-0.4,0.5-0.8c0-0.7,0-1.4,0-2.3c0-0.8,0-1.8,0-2.8v-20.7c0-0.9,0-1.7,0-2.3
	c0-0.7,0-1.3,0-1.9c0-0.4-0.2-0.7-0.4-0.9l-2.2-1V107c1.6,0.1,3.1,0.1,4.5,0.1c1.5,0,3,0,4.5-0.1l0.1,1.1l-2.2,0.9
	c-0.3,0.1-0.4,0.4-0.5,0.8c0,0.6,0,1.2,0,2c0,0.7,0,1.5,0,2.3V134.8z"/>
<path class="st0" d="M476,143l-0.1-1.1l14.3-32.3h-10.9l-1.4,6.1l-0.7,0.2l-1-8.5l0.1-0.2c3.1,0.1,6,0.1,8.8,0.1h4.4
	c1.8,0,3.5,0,5.3-0.1l0.1,1.1l-14.2,32.3H492l2.5-6.9l0.8-0.2l-0.5,9.3l-0.1,0.2c-3.5-0.1-6.6-0.1-9.3-0.1h-4.5
	C479.1,142.9,477.5,142.9,476,143z"/>
<path class="st0" d="M517.8,106.6l8,31.2c0.3,1.2,0.6,2,0.8,2.4s0.6,0.7,1,0.9l1.7,0.7v1.1c-1.6-0.1-3-0.1-4.4-0.1s-3,0-4.8,0.1
	l-0.1-1.1l1.7-0.7c0.2-0.1,0.4-0.3,0.5-0.4s0.2-0.4,0.2-0.7c0-0.3-0.1-0.8-0.2-1.3c-0.1-0.6-0.3-1.3-0.5-2.2l-1.7-6.8h-8.7l-1.9,6.8
	c-0.3,1-0.4,1.7-0.6,2.3c-0.1,0.6-0.2,1-0.2,1.3s0.1,0.5,0.2,0.7c0.1,0.1,0.3,0.3,0.5,0.4l1.7,0.7v1.1c-1.7-0.1-3.1-0.1-4.2-0.1
	c-1.1,0-2.3,0-3.6,0.1l-0.1-1.1l1.8-0.8c0.5-0.2,0.8-0.5,1-0.9s0.5-1.1,0.7-2L516,107L517.8,106.6z M512.1,127.4h7.4l-3.5-14.1
	L512.1,127.4z"/>
<polyline class="st0" points="183.8,152.5 533,152.5 533,160.9 183.8,160.9 "/>
<polyline class="st0" points="184.1,47.2 533,47.2 533,55.6 184.1,55.6 "/>
<path class="st0" d="M269.5,289.8c2.5-4.9,5.1-9.8,8.7-16.8c-7.5-2.2-16-7.7-22.4-5.7c-5.9,1.9-9.5,11.8-15,19.5
	c2.2-7.7,4.1-14.1,6.1-21c-2-0.2-4.7-0.4-5-0.5c7-3.9,15.4-8.2,23.5-13c16.9-9.9,34.9-12.3,53.1-8.3c19.6,4.2,38.8,10.2,58.3,15.3
	c26.8,7,53.9,11.1,81.7,3c29.8-8.8,52.9-53.1,43-82.2c-3.1-9.1-8.7-16.3-18.7-17.6c-9.3-1.3-15.5,5.1-20.5,12.2
	c-11.6,16.5-16.1,34.8-14.7,54.4c0.5,7.7,2.6,15.5,11.1,17c8.3,1.5,11.5-6.1,15-12c1.8-3,3.2-6.3,4.8-9.4c0.6,0.3,1.3,0.7,1.9,1
	c-3.4,6.2-6,13-10.4,18.4c-6.6,8.3-16.3,7.7-22.4-0.6c-1.8-2.5-3.6-5.6-4.1-8.6c-3.8-25.1,1.5-48.2,19.6-67.3
	c11.5-12.1,26.3-10.5,35.5,2.6c2.3,3.3,4.2,7.1,5.3,11c10.2,36.3-16.4,79.7-53.4,87.8c-26.6,5.8-52.1,1.6-77.2-5.8
	c-18.1-5.3-36.1-11.4-54.5-15.8c-17.7-4.3-35.6-3.1-52.2,7.2c-2.3,1.4-4.4,3.1-6.5,4.8c-0.9,0.7-1.4,1.8-2.3,3.1
	c5.5,1.5,10.9,2.5,15.9,4.5c13.7,5.6,17.6,20.6,8.5,32.9c-2,2.6-6,3.8-9,5.6c-1.9-3.6-4-7.1-5.4-10.9c-0.4-1.2,1.2-3.2,1.9-4.9
	c-0.2,1.8-1,3.8-0.5,5.3c1,2.8,2.7,5.3,4.1,8c2.4-1.9,5.6-3.3,6.9-5.7c3.3-6.3,3.8-13-0.7-21.1C275.6,281.4,272.5,285.6,269.5,289.8
	z"/>
<path class="st0" d="M7.3,13.3C6.8,11,6.5,8.7,6,5.4c15.3,0,29.9,0.9,44.3-0.3C64,4,72.6,8.6,81.3,19.5
	c28.5,36.2,58.4,71.2,87.8,106.7c0.7,0.9,1.6,1.7,3.2,3.5c0.2-2.4,0.4-3.7,0.4-5c0-27.9,0.1-55.9,0-83.8C172.6,22,168.4,17,150,13.3
	c-4.5-0.9-4.5-0.9-3.6-7.5c20.7,0,41.5,0,62.7,0c1.6,4.4,1.2,6.8-4.4,8c-14.8,3.3-17.5,6.8-17.5,22.1c-0.1,54.4,0,108.8,0,163.3
	c0,2.7,0,5.3,0,8.2c-9.2,3.6-13.1-3.5-17.2-8.4c-23.2-27.7-45.9-56-69.1-83.8C83.1,93.9,64.8,72.9,46.1,51c-0.2,2.8-0.6,4.8-0.6,6.8
	c0,36,0,71.9,0,107.9c0,1.7,0,3.4,0.1,5.1c0.7,15.5,5,20.5,20.3,23.6c4.2,0.9,9.4,0.8,6.7,8.1c-22.1,0-44.3,0-66.7,0
	c-1.7-4.8-0.5-7.3,4.8-7.7c3.1-0.2,6.2-1.2,9.2-1.9c7.3-1.6,11.2-6.4,12-13.7c0.3-3.1,0.6-6.3,0.6-9.4c0-43.2,0-86.5,0-129.7
	c0-8.9-13.2-24.1-22.7-26"/>
<path class="st0" d="M89.7-281.6"/>
<path class="st1" d="M503.6,252.1c-2.9,15.2-12.2,23-21.1,30.8c-21.3,18.8-47.3,20.7-74.5,17.4c-21.8-2.6-43.4-9.5-65-17.3
	c-21-7.5-42-15-63.1-15.6c0.3-2.1,2.3-1.6,3-3.1c22.7-2.3,45.6,7.3,68.4,14c23.5,6.9,47,12.8,70.5,14.9c33.3,3,60.5-8.2,79.1-41
	C501.6,251.2,502.5,251.1,503.6,252.1z"/>
</svg>
